<svg width="164" height="189" viewBox="0 0 164 189" fill="none" xmlns="http://www.w3.org/2000/svg">
<path d="M123.425 52.7656L115.484 46.9908L127.105 31.0124C128.953 28.472 131.904 26.969 135.045 26.969H163.68C163.68 32.3915 159.284 36.7872 153.861 36.7872H135.045L123.425 52.7656Z" fill="#BD424B"/>
<path d="M121.091 59.6964V49.8782H158.919C158.919 55.3006 154.523 59.6964 149.101 59.6964H121.091Z" fill="#BD424B"/>
<mask id="mask0" mask-type="alpha" maskUnits="userSpaceOnUse" x="13" y="0" width="130" height="124">
<path d="M77.7276 123.515C91.8514 123.515 104.689 118.009 114.212 109.027C117.639 105.795 127.023 94.5334 142.364 75.242C132.913 60.5093 127.75 52.0874 126.875 49.9763C125.078 45.6428 126.685 28.984 131.697 0L98.0841 21.1859C89.3202 18.4958 82.5347 17.1508 77.7276 17.1508C72.9204 17.1508 66.1349 18.4958 57.371 21.1859L23.7584 0C28.7701 28.984 30.3775 45.6428 28.5806 49.9763C27.7052 52.0874 22.5419 60.5093 13.0908 75.242C28.4325 94.5334 37.8166 105.795 41.243 109.027C50.7658 118.009 63.6037 123.515 77.7276 123.515Z" fill="white"/>
</mask>
<g mask="url(#mask0)">
<path d="M77.7276 123.515C91.8514 123.515 104.689 118.009 114.212 109.027C117.639 105.795 127.023 94.5334 142.364 75.242C132.913 60.5093 127.75 52.0874 126.875 49.9763C125.078 45.6428 126.685 28.984 131.697 0L98.0841 21.1859C89.3202 18.4958 82.5347 17.1508 77.7276 17.1508C72.9204 17.1508 66.1349 18.4958 57.371 21.1859L23.7584 0C28.7701 28.984 30.3775 45.6428 28.5806 49.9763C27.7052 52.0874 22.5419 60.5093 13.0908 75.242C28.4325 94.5334 37.8166 105.795 41.243 109.027C50.7658 118.009 63.6037 123.515 77.7276 123.515Z" fill="#DDDDDD"/>
<path fill-rule="evenodd" clip-rule="evenodd" d="M23.7588 0C28.7705 28.984 30.3779 45.6428 28.581 49.9763C27.9415 51.5184 32.8901 46.8131 43.4268 35.8603C45.4544 33.7526 45.687 30.4974 43.9796 28.1228L23.7588 0Z" fill="#CDCDCD"/>
<path fill-rule="evenodd" clip-rule="evenodd" d="M126.875 49.9763C125.078 45.6428 126.686 28.984 131.697 0L111.477 28.1228C109.769 30.4974 110.002 33.7526 112.029 35.8603C122.566 46.8131 127.515 51.5184 126.875 49.9763Z" fill="#CDCDCD"/>
<path d="M137.455 35.1509H22.9092V54.7874H137.455V35.1509Z" fill="#E6505C"/>
<path fill-rule="evenodd" clip-rule="evenodd" d="M21.2725 54.7874H134.182V61.3328H21.2725V54.7874Z" fill="#2D2C2C"/>
</g>
<path fill-rule="evenodd" clip-rule="evenodd" d="M52.3634 79.3328H101.455C108.685 79.3328 114.546 85.1938 114.546 92.4237H39.2725C39.2725 85.1938 45.1335 79.3328 52.3634 79.3328Z" fill="white"/>
<path fill-rule="evenodd" clip-rule="evenodd" d="M71.72 79.3328H82.0998C83.9073 79.3328 85.3725 80.798 85.3725 82.6055C85.3725 83.4735 85.0277 84.3059 84.4139 84.9197L79.2241 90.1096C77.946 91.3877 75.8738 91.3877 74.5957 90.1096L69.4058 84.9197C68.1277 83.6416 68.1277 81.5694 69.4058 80.2913C70.0196 79.6776 70.852 79.3328 71.72 79.3328Z" fill="#E6505C"/>
<path fill-rule="evenodd" clip-rule="evenodd" d="M53.1819 81.7876C39.6818 81.7876 32.3181 74.4239 31.0908 59.6965C38.4545 59.6965 45.8182 59.6965 53.1819 59.6965C60.5455 59.6965 67.9092 59.6965 75.2729 59.6965C74.0456 74.4239 66.6819 81.7876 53.1819 81.7876ZM102.273 81.7876C88.773 81.7876 81.4093 74.4239 80.182 59.6965C87.5457 59.6965 94.9094 59.6965 102.273 59.6965C109.637 59.6965 117 59.6965 124.364 59.6965C123.137 74.4239 115.773 81.7876 102.273 81.7876Z" fill="#2D2C2C"/>
<path d="M148.91 92.4241H8.18187C3.66315 92.4241 0 96.0872 0 100.606V180.788C0 185.307 3.66315 188.97 8.18187 188.97H148.91C153.429 188.97 157.092 185.307 157.092 180.788V100.606C157.092 96.0872 153.429 92.4241 148.91 92.4241Z" fill="#2D2C2C"/>
<path d="M101.627 127.121C100.539 126.312 100.313 124.774 101.123 123.686C101.932 122.599 103.469 122.373 104.557 123.182L127.04 139.909C128.378 140.904 128.356 142.914 126.996 143.88L104.513 159.848C103.408 160.632 101.876 160.373 101.091 159.268C100.306 158.162 100.565 156.63 101.671 155.845L121.401 141.832L101.627 127.121ZM35.2654 141.166L55.0397 155.877C56.1273 156.686 56.3531 158.224 55.5439 159.312C54.7348 160.399 53.1971 160.625 52.1095 159.816L29.6262 143.089C28.2887 142.094 28.3109 140.084 29.67 139.118L52.1533 123.15C53.2585 122.365 54.7908 122.625 55.5758 123.73C56.3607 124.836 56.1011 126.368 54.9959 127.153L35.2654 141.166ZM64.2761 168.978C63.5685 170.135 62.0575 170.498 60.9012 169.791C59.745 169.083 59.3812 167.572 60.0888 166.416L93.6344 111.598C94.342 110.441 95.853 110.077 97.0093 110.785C98.1656 111.493 98.5293 113.004 97.8217 114.16L64.2761 168.978Z" fill="#DDDDDD"/>
</svg>
